<?xml version="1.0" encoding="UTF-8"?>
<svg width="203px" height="194px" viewBox="0 0 203 194" version="1.1" xmlns="http://www.w3.org/2000/svg" xmlns:xlink="http://www.w3.org/1999/xlink">
    <!-- Generator: Sketch 53.2 (72643) - https://sketchapp.com -->
    <title>Group 2LOGO_V2</title>
    <desc>Created with Sketch.</desc>
    <g id="Page-1" stroke="none" stroke-width="1" fill="none" fill-rule="evenodd">
        <g id="iPhone-8.1-p.6" transform="translate(-89.000000, -129.000000)">
            <g id="Group-2" transform="translate(89.000000, 129.000000)">
                <g id="Group">
                    <path d="M52.6836947,81.6884248 L56.5788157,84.864749 C56.9040867,89.9380445 57.4204545,97.7384871 57.6644078,100.132762 C58.022206,103.714147 87.7479149,137.546812 88,138 C76.21299,134.514867 52.1713928,103.489559 51.2077773,99.8881206 C50.4962469,97.2451943 49.727794,89.5851196 49,80" id="Fill-1" fill="#272828"></path>
                    <path d="M176,19.850471 C176,19.850471 172.839474,90.6923457 170.395602,100.001811 C169.292437,104.198768 161.699121,113.180094 151.605567,123 C160.950258,110.344312 163.096195,101.281964 163.99,94.5530597 C164.006104,94.4031684 164.022209,94.2573282 164.046366,94.1195903 C164.235595,92.7219551 164.416771,91.0285884 164.610026,89.0962058 C166.494264,69.739971 168.422789,26.6077334 168.422789,26.6077334 C144.535651,14.0492721 110.9616,9.0704499 110.9616,9.0704499 C110.9616,9.0704499 105.409542,9.89282656 97.2082774,11.7198801 L83,6.03616363 C98.6174293,1.82705355 110.9616,0 110.9616,0 C110.9616,0 148.960388,5.63915421 176,19.850471" id="Fill-3" fill="#272828"></path>
                    <path d="M123.171242,59.8709677 C109.74236,33.7701613 90.8001426,26.7258065 65.7207441,21.5322581 L10,10 L10.3159737,11.5846774 C13.4554558,27.2056452 25.377386,39.016129 42.1320932,43.0927419 L76.7798231,50.266129 C93.7370775,53.7782258 108.620248,61.4153226 119.983148,72.4354839 L135,87 C135,87 126.55378,66.4354839 123.171242,59.8709677" id="Fill-5" fill="#3EB07D"></path>
                    <path d="M131.249332,90.8452838 C117.909104,64.7197668 99.0919375,57.6687428 74.1781061,52.4743136 L0,37 L0.317911918,38.5902138 C3.43666807,54.2259704 15.2839173,66.0435996 31.9199662,70.128108 L85.1641762,81.2353879 C102.009484,84.7467736 116.7944,92.3911007 128.082285,103.421695 L143,118 C143,118 134.60954,97.4200508 131.249332,90.8452838" id="Fill-7" fill="#3EB07D"></path>
                    <path d="M44.32474,163.9112 L50.38429,163.9112 L50.38429,165.37385 L39.01741,178.9556 L50.38429,192.53735 L50.38429,194 L44.32474,194 L34.0444,181.71374 L26.9401,181.71374 L26.9401,194 L21.38203,194 L21.38203,163.9112 L26.9401,163.9112 L26.9401,176.19746 L34.0444,176.19746 L44.32474,163.9112 Z M60.3721,163.9112 L78.84328,163.9112 C80.4313079,163.9112 81.7964343,164.475359 82.9387,165.603695 C84.0809657,166.732031 84.65209,168.104122 84.65209,169.72001 L84.65209,188.19119 C84.65209,189.807078 84.0809657,191.179169 82.9387,192.307505 C81.7964343,193.435841 80.4313079,194 78.84328,194 L60.3721,194 C58.7562119,194 57.3841206,193.435841 56.255785,192.307505 C55.1274494,191.179169 54.56329,189.807078 54.56329,188.19119 L54.56329,169.72001 C54.56329,168.104122 55.1274494,166.732031 56.255785,165.603695 C57.3841206,164.475359 58.7562119,163.9112 60.3721,163.9112 Z M60.3721,188.48372 L78.84328,188.48372 C79.0104408,188.48372 79.09402,188.386211 79.09402,188.19119 L79.09402,169.72001 C79.09402,169.524989 79.0104408,169.42748 78.84328,169.42748 L60.3721,169.42748 C60.177079,169.42748 60.07957,169.524989 60.07957,169.72001 L60.07957,188.19119 C60.07957,188.386211 60.177079,188.48372 60.3721,188.48372 Z M106.21573,176.94968 L117.12292,163.9112 L123.18247,163.9112 L123.18247,194 L117.6244,194 L117.6244,171.93488 L106.21573,185.51663 L94.76527,171.93488 L94.76527,194 L89.24899,194 L89.24899,163.9112 L95.26675,163.9112 L106.21573,176.94968 Z M133.75534,163.9112 L152.22652,163.9112 C153.814548,163.9112 155.179674,164.475359 156.32194,165.603695 C157.464206,166.732031 158.03533,168.104122 158.03533,169.72001 L158.03533,188.19119 C158.03533,189.807078 157.464206,191.179169 156.32194,192.307505 C155.179674,193.435841 153.814548,194 152.22652,194 L133.75534,194 C132.139452,194 130.767361,193.435841 129.639025,192.307505 C128.510689,191.179169 127.94653,189.807078 127.94653,188.19119 L127.94653,169.72001 C127.94653,168.104122 128.510689,166.732031 129.639025,165.603695 C130.767361,164.475359 132.139452,163.9112 133.75534,163.9112 Z M133.75534,188.48372 L152.22652,188.48372 C152.393681,188.48372 152.47726,188.386211 152.47726,188.19119 L152.47726,169.72001 C152.47726,169.524989 152.393681,169.42748 152.22652,169.42748 L133.75534,169.42748 C133.560319,169.42748 133.46281,169.524989 133.46281,169.72001 L133.46281,188.19119 C133.46281,188.386211 133.560319,188.48372 133.75534,188.48372 Z M191.63449,169.72001 L191.63449,175.6124 C191.63449,176.448204 191.495191,177.158627 191.21659,177.74369 C192.303135,178.885956 192.8464,180.209292 192.8464,181.71374 L192.8464,188.19119 C192.8464,189.807078 192.275276,191.179169 191.13301,192.307505 C189.990744,193.435841 188.611688,194 186.9958,194 L162.7576,194 L162.7576,163.9112 L185.82568,163.9112 C187.413708,163.9112 188.778834,164.475359 189.9211,165.603695 C191.063366,166.732031 191.63449,168.104122 191.63449,169.72001 Z M185.82568,169.42748 L168.56641,169.42748 C168.371389,169.42748 168.27388,169.524989 168.27388,169.72001 L168.27388,175.6124 C168.27388,175.807421 168.371389,175.90493 168.56641,175.90493 L185.82568,175.90493 C185.992841,175.90493 186.07642,175.807421 186.07642,175.6124 L186.07642,169.72001 C186.07642,169.524989 185.992841,169.42748 185.82568,169.42748 Z M187.28833,188.19119 L187.28833,181.71374 C187.28833,181.546579 187.190821,181.463 186.9958,181.463 L168.56641,181.463 C168.371389,181.463 168.27388,181.546579 168.27388,181.71374 L168.27388,188.19119 C168.27388,188.386211 168.371389,188.48372 168.56641,188.48372 L186.9958,188.48372 C187.190821,188.48372 187.28833,188.386211 187.28833,188.19119 Z M197.4433,194 L197.4433,163.9112 L202.95958,163.9112 L202.95958,194 L197.4433,194 Z" id="KOMOBI" fill="#3EB07D" fill-rule="nonzero"></path>
                </g>
            </g>
        </g>
    </g>
</svg>