<?xml version="1.0" encoding="UTF-8"?>
<svg
 <!-- width="400px" height="400px"  viewBox="0 0 400 400"  -->
 version="1.1" xmlns="http://www.w3.org/2000/svg" xmlns:xlink="http://www.w3.org/1999/xlink">
    <title>Artboardwifi_1</title>
    <g id="Artboard" stroke="none" stroke-width="1" fill="none" fill-rule="evenodd">
        <g id="Group" transform="translate(82.000000, 93.000000)">
            <path d="M117.529382,185.681818 C125.63891,185.681818 132.220555,192.249091 132.220555,200.340909 C132.220555,208.432727 125.63891,215 117.529382,215 C109.419855,215 102.83821,208.432727 102.83821,200.340909 C102.83821,192.249091 109.419855,185.681818 117.529382,185.681818 Z" id="Path" fill="#3FB07D"></path>
            <path d="M81.6927148,153.881364 C91.6141535,146.248864 104.042886,141.704545 117.529382,141.704545 C131.006085,141.704545 143.434817,146.239091 153.346462,153.871591 L147.744228,161.895 C139.41923,155.376591 128.929732,151.477273 117.529382,151.477273 C106.129032,151.477273 95.6199467,155.376591 87.2949487,161.914545 L81.6927148,153.881364 L81.6927148,153.881364 Z" id="Path" fill="#3FB07D"></path>
            <path d="M53.6913395,113.764318 C71.5655997,100.610227 93.6415354,92.8409091 117.529382,92.8409091 C141.397641,92.8409091 163.473577,100.600455 181.338043,113.744773 L175.735809,121.768182 C159.457989,109.728182 139.321289,102.613636 117.529382,102.613636 C95.7276819,102.613636 75.5713928,109.737955 59.2935734,121.787727 L53.6913395,113.764318 Z" id="Path" fill="#E6E6E6"></path>
            <path d="M25.6997583,73.6570455 C51.5072518,54.9911364 83.240185,43.9772727 117.529382,43.9772727 C151.798991,43.9772727 183.512336,54.9715909 209.310036,73.6277273 L203.717596,81.6511364 C179.506543,64.0993182 149.722639,53.75 117.529382,53.75 C85.3263316,53.75 55.522839,64.1090909 31.3019922,81.6804545 L25.6997583,73.6570455 Z" id="Path" fill="#E6E6E6"></path>
            <path d="M0,36.8334091 C33.3195799,13.6231818 73.8476286,2.13162821e-13 117.529382,2.13162821e-13 C161.191548,2.13162821e-13 201.690214,13.6036364 235,36.7943182 L229.40756,44.8079545 C197.684421,22.7313636 159.105401,9.77272727 117.529382,9.77272727 C75.923981,9.77272727 37.3351671,22.7411364 5.59243978,44.8470455 L0,36.8334091 L0,36.8334091 Z" id="Path" fill="#E6E6E6"></path>
        </g>
    </g>
</svg>